HIERARCHY
ROOT root
{
	OFFSET 0.000000 0.000000 0.000000
	CHANNELS 6 Xposition Yposition Zposition Zrotation Yrotation Xrotation
	JOINT lhip
	{
		OFFSET 0.058581 -0.082280 -0.017664
		CHANNELS 3 Zrotation Yrotation Xrotation
		JOINT lknee
		{
			OFFSET 0.043451 -0.386469 0.008037
			CHANNELS 3 Zrotation Yrotation Xrotation
			JOINT lankle
			{
				OFFSET -0.014790 -0.426874 -0.037428
				CHANNELS 3 Zrotation Yrotation Xrotation
				JOINT ltoe
				{
					OFFSET 0.041054 -0.060286 0.122042
					CHANNELS 3 Zrotation Yrotation Xrotation
					End Site
					{
						OFFSET 0.000000 0.000000 0.000000
					}
				}
			}
		}
	}
	JOINT rhip
	{
		OFFSET -0.060310 -0.090513 -0.013543
		CHANNELS 3 Zrotation Yrotation Xrotation
		JOINT rknee
		{
			OFFSET -0.043257 -0.383688 -0.004843
			CHANNELS 3 Zrotation Yrotation Xrotation
			JOINT rankle
			{
				OFFSET 0.019056 -0.420046 -0.034562
				CHANNELS 3 Zrotation Yrotation Xrotation
				JOINT rtoe
				{
					OFFSET -0.034840 -0.062106 0.130323
					CHANNELS 3 Zrotation Yrotation Xrotation
					End Site
					{
						OFFSET 0.000000 0.000000 0.000000
					}
				}
			}
		}
	}
	JOINT lowerback
	{
		OFFSET 0.004439 0.124404 -0.038385
		CHANNELS 3 Zrotation Yrotation Xrotation
		JOINT upperback
		{
			OFFSET 0.004488 0.137956 0.026820
			CHANNELS 3 Zrotation Yrotation Xrotation
			JOINT chest
			{
				OFFSET -0.002265 0.056032 0.002855
				CHANNELS 3 Zrotation Yrotation Xrotation
				JOINT lowerneck
				{
					OFFSET -0.013390 0.211636 -0.033468
					CHANNELS 3 Zrotation Yrotation Xrotation
					JOINT upperneck
					{
						OFFSET 0.010113 0.088937 0.050410
						CHANNELS 3 Zrotation Yrotation Xrotation
						End Site
						{
							OFFSET 0.000000 0.000000 0.000000
						}
					}
				}
				JOINT lclavicle
				{
					OFFSET 0.071702 0.114000 -0.018898
					CHANNELS 3 Zrotation Yrotation Xrotation
					JOINT lshoulder
					{
						OFFSET 0.122921 0.045205 -0.019046
						CHANNELS 3 Zrotation Yrotation Xrotation
						JOINT lelbow
						{
							OFFSET 0.255332 -0.015649 -0.022946
							CHANNELS 3 Zrotation Yrotation Xrotation
							JOINT lwrist
							{
								OFFSET 0.265709 0.012698 -0.007375
								CHANNELS 3 Zrotation Yrotation Xrotation
								End Site
								{
									OFFSET 0.000000 0.000000 0.000000
								}
							}
						}
					}
				}
				JOINT rclavicle
				{
					OFFSET -0.082954 0.112472 -0.023707
					CHANNELS 3 Zrotation Yrotation Xrotation
					JOINT rshoulder
					{
						OFFSET -0.113228 0.046853 -0.008472
						CHANNELS 3 Zrotation Yrotation Xrotation
						JOINT relbow
						{
							OFFSET -0.260127 -0.014369 -0.031269
							CHANNELS 3 Zrotation Yrotation Xrotation
							JOINT rwrist
							{
								OFFSET -0.269108 0.006794 -0.006027
								CHANNELS 3 Zrotation Yrotation Xrotation
								End Site
								{
									OFFSET 0.000000 0.000000 0.000000
								}
							}
						}
					}
				}
			}
		}
	}
}
MOTION
Frames: 8
Frame Time: 0.033333
-0.078673 0.264485 0.947507 102.578665 0.103925 84.841348 6.695982 4.398226 23.680879 -8.406276 -19.877062 3.640396 1.385544 5.343021 -25.497595 0.000000 -0.000000 0.000000 -4.067164 -3.949596 -23.941266 4.854244 -7.530355 4.225421 8.548485 -5.693374 -11.573120 0.000000 -0.000000 0.000000 -3.041154 -4.734019 8.597891 3.066915 -3.066559 1.532121 1.462485 -5.227981 1.027614 1.489267 4.542000 -5.056611 0.864562 -3.418664 3.614150 -25.474300 3.076829 0.054440 -55.697934 -22.728154 11.958770 18.057220 -48.523281 1.608690 -0.562488 -8.817643 -9.851989 31.637055 -13.123502 1.652780 57.691696 -15.043094 8.485254 -24.128835 22.297287 -3.057238 14.403333 0.911291 1.609931 
-0.029721 0.264356 0.940690 104.190276 0.566942 85.416054 8.137222 3.439092 24.252417 -8.803951 -21.343272 7.861901 -0.809882 4.802354 -25.187016 0.000000 -0.000000 0.000000 -4.315202 -3.434732 -24.833221 5.225181 -8.701789 6.362459 8.518276 -5.464868 -11.522877 0.000000 -0.000000 0.000000 -1.948897 -5.752127 7.615992 3.429806 -3.279591 2.014647 1.290535 -5.745006 0.861324 1.018188 4.400918 -5.240094 0.152519 -3.145865 3.180385 -26.113665 3.029257 0.250722 -55.359486 -23.984160 11.934654 19.834221 -50.563138 0.122777 -0.038930 -9.510843 -10.219615 31.876309 -13.705300 1.523088 56.733152 -15.690405 8.213273 -23.729588 22.321240 -2.544949 14.494467 1.256843 0.782049 
0.023050 0.264294 0.937729 104.551793 1.109921 85.300394 8.658211 1.840745 25.670387 -8.938613 -22.554627 12.267486 -2.686681 4.621933 -22.567554 0.000000 -0.000000 0.000000 -3.782025 -1.877120 -25.187437 4.716078 -11.229265 11.857889 8.992576 -6.788652 -6.670257 0.000000 -0.000000 0.000000 -0.898549 -7.023638 6.798345 3.887721 -2.957810 2.950022 1.155540 -5.584062 0.699144 0.298442 4.113853 -5.830455 -0.583970 -2.434702 3.253747 -26.740262 3.253910 0.503892 -55.868623 -23.573434 12.181966 22.168553 -52.198205 -1.994820 0.715995 -10.382962 -10.051873 32.079388 -13.332218 1.708864 55.939312 -15.697959 8.174703 -23.675161 21.796721 -2.687528 14.136015 1.110080 0.719152 
0.075226 0.263112 0.939897 102.871026 1.815329 86.174086 7.785077 0.450040 24.190042 -9.338429 -20.730980 19.835476 -4.085392 4.918015 -16.429802 0.000000 -0.000000 0.000000 -2.701804 0.643755 -27.440524 3.943168 -10.534902 19.365325 8.607247 -6.645441 -3.441431 0.000000 -0.000000 0.000000 0.643738 -7.884984 5.659337 4.470349 -1.951322 3.147979 0.833317 -5.012687 0.409308 -0.230741 4.408266 -6.931864 -1.920189 -1.139170 3.937545 -28.320361 4.714489 0.411483 -56.377893 -21.495976 12.471651 24.425912 -53.764186 -4.130191 -0.164187 -10.630306 -9.201758 32.834686 -12.765284 1.959001 54.369247 -14.530719 8.779269 -23.902877 20.940326 -2.988729 14.567996 1.133747 0.823215 
0.127668 0.261177 0.944913 100.898416 3.036676 85.835691 7.095451 -0.632653 20.985339 -9.661305 -15.280194 30.565866 -6.013315 5.745951 -2.561767 0.000000 -0.000000 0.000000 -0.277593 3.747792 -27.703903 3.098337 -10.332534 26.428048 3.766053 -6.753813 -7.076682 0.000000 -0.000000 0.000000 2.395598 -8.366692 5.969202 5.194993 -1.270504 3.517397 0.520025 -4.523522 0.025262 -0.825545 4.951675 -7.792474 -2.903209 -0.105914 4.066454 -29.415154 5.651688 0.773100 -57.204314 -18.203426 12.529643 27.147095 -54.682890 -6.832498 -0.860083 -10.014818 -10.520540 32.890977 -11.737503 2.364740 53.722984 -12.378692 8.811343 -24.407355 21.070795 -1.948804 14.627435 0.635130 0.143149 
0.177450 0.259368 0.949574 98.796621 3.514932 85.326950 5.748772 -2.248777 16.449463 -9.111336 -8.888530 41.529323 -8.892554 6.233499 10.087292 0.000000 -0.000000 0.000000 1.708077 5.742732 -25.217479 3.436994 -9.628952 28.898805 -1.230433 -7.618661 -10.867588 0.000000 -0.000000 0.000000 3.300706 -7.512433 6.704387 5.416147 -1.062249 3.678559 0.311297 -3.999746 -0.655294 -0.929467 5.128253 -8.067145 -3.115318 0.863712 4.415152 -28.780926 5.549126 1.532568 -59.473536 -14.670803 11.530867 27.588045 -53.718901 -8.431321 -1.697426 -10.820916 -9.983863 31.910212 -9.709756 3.479113 55.360400 -10.076562 7.031907 -25.085125 21.706189 -3.309172 12.991820 -0.338429 1.715424 
0.225172 0.259012 0.955830 97.497044 3.209753 85.090316 4.661099 -1.636931 10.792590 -8.837441 -6.419311 51.682958 -7.305476 10.012853 14.626394 0.000000 -0.000000 0.000000 3.083336 4.851174 -21.299736 3.684848 -8.046652 28.914263 -3.495124 -7.152369 -14.212331 0.000000 -0.000000 0.000000 3.199513 -5.649488 6.401666 5.604038 -1.229412 4.630814 0.275263 -3.647753 -1.096391 -0.803151 4.278980 -8.341520 -3.277434 1.251983 4.781389 -29.102726 5.202748 1.913827 -60.365716 -12.011485 10.729494 23.418253 -51.465185 -4.247819 -0.968265 -10.012645 -11.343724 31.891489 -8.034536 3.698074 55.988813 -7.732171 6.594577 -25.254358 23.132748 -4.008327 11.601184 0.102754 0.767224 
0.268976 0.259933 0.963923 96.822507 2.990641 84.752861 3.811245 -2.379125 4.976653 -8.210798 -3.540791 58.199323 -4.155836 10.024732 5.708918 0.000000 -0.000000 0.000000 3.890588 3.614270 -16.382268 4.111968 -6.658877 26.651009 -3.304721 -6.684908 -16.336797 0.000000 -0.000000 0.000000 3.335502 -3.872295 7.768899 5.490665 -1.183525 2.735554 0.266183 -3.197391 -0.394986 -0.400508 3.593249 -8.103351 -3.725489 1.108648 5.345144 -29.283932 5.303512 1.860024 -61.706559 -10.034448 10.237345 18.324844 -46.763964 2.272221 -2.117082 -9.005523 -10.656268 31.316477 -6.969866 3.300642 56.673554 -5.116292 7.327933 -24.932934 24.685691 -3.140425 10.148943 1.072820 -0.771800 
